<?xml version="1.0" standalone="no"?><!DOCTYPE svg PUBLIC "-//W3C//DTD SVG 1.1//EN" "http://www.w3.org/Graphics/SVG/1.1/DTD/svg11.dtd"><svg t="1591691855114" class="icon" viewBox="0 0 1024 1024" version="1.1" xmlns="http://www.w3.org/2000/svg" p-id="2685" data-spm-anchor-id="a313x.7781069.0.i2" xmlns:xlink="http://www.w3.org/1999/xlink" width="200" height="200"><defs><style type="text/css"></style></defs><path d="M579.128889 365.037037H444.681481l-67.318518-116.148148L444.681481 132.740741h134.447408l67.318518 116.148148-67.318518 116.148148z m-109.89037-42.666667h85.333333l42.571852-73.481481-42.571852-73.481482h-85.333333L426.666667 248.888889l42.571852 73.481481zM329.765926 787.247407H195.223704l-67.318519-116.148148 67.318519-116.148148h134.447407l67.318519 116.148148-67.223704 116.148148z m-109.985185-42.666666h85.333333l42.571852-73.481482-42.571852-73.481481h-85.333333l-42.571852 73.481481 42.571852 73.481482zM828.586667 787.247407H694.139259l-67.318518-116.148148 67.318518-116.148148h134.447408l67.318518 116.148148-67.318518 116.148148z m-109.890371-42.666666h85.333334l42.571851-73.481482-42.571851-73.481481h-85.333334l-42.571852 73.481481 42.571852 73.481482zM152.557037 533.333333c-11.757037 0-21.333333-9.576296-21.333333-21.333333 0-49.303704 9.386667-97.28 27.875555-142.696296 19.152593-47.028148 47.312593-89.315556 83.626667-125.44 15.644444-15.644444 32.805926-29.961481 50.820741-42.477037 9.671111-6.731852 22.945185-4.361481 29.677037 5.214814 6.731852 9.671111 4.361481 22.945185-5.214815 29.677038-16.023704 11.188148-31.194074 23.893333-45.131852 37.831111C209.066667 337.540741 173.89037 422.115556 173.89037 512c0 11.757037-9.481481 21.333333-21.333333 21.333333zM511.905185 891.259259c-55.371852 0-110.933333-12.231111-160.900741-35.46074-10.714074-4.93037-15.36-17.635556-10.334814-28.34963 4.93037-10.714074 17.635556-15.36 28.349629-10.334815 90.832593 42.192593 195.034074 42.192593 285.866667 0 10.714074-4.93037 23.324444-0.284444 28.34963 10.334815 4.93037 10.714074 0.284444 23.324444-10.334815 28.34963C622.933333 879.028148 567.277037 891.259259 511.905185 891.259259zM871.253333 533.333333c-11.757037 0-21.333333-9.576296-21.333333-21.333333 0-89.884444-35.176296-174.459259-98.986667-237.985185-15.739259-15.644444-32.900741-29.771852-51.2-41.908148-9.765926-6.542222-12.420741-19.816296-5.878518-29.582223 6.542222-9.765926 19.816296-12.420741 29.582222-5.878518 20.574815 13.748148 40.011852 29.582222 57.647407 47.217778 36.314074 36.219259 64.474074 78.411852 83.626667 125.44 18.488889 45.416296 27.875556 93.487407 27.875556 142.696296 0 11.757037-9.576296 21.333333-21.333334 21.333333zM245.76 533.333333c-11.757037 0-21.333333-9.576296-21.333333-21.333333 0-76.515556 29.961481-148.48 84.195555-202.619259 11.851852-11.757037 24.746667-22.565926 38.305185-32.142222 9.671111-6.731852 22.945185-4.361481 29.677037 5.214814 6.731852 9.671111 4.361481 22.945185-5.214814 29.677037-11.567407 8.059259-22.565926 17.351111-32.711111 27.401482-46.26963 46.08-71.68 107.235556-71.68 172.373333 0.094815 11.851852-9.481481 21.428148-21.238519 21.428148zM511.905185 798.435556c-41.813333 0-83.816296-9.291852-121.552592-26.737778-10.714074-4.93037-15.36-17.635556-10.334815-28.34963 4.93037-10.714074 17.635556-15.36 28.349629-10.334815 65.801481 30.53037 141.274074 30.53037 207.075556 0 10.714074-4.93037 23.324444-0.284444 28.34963 10.334815 4.93037 10.714074 0.284444 23.324444-10.334815 28.34963-37.736296 17.540741-79.739259 26.737778-121.552593 26.737778zM778.145185 533.333333c-11.757037 0-21.333333-9.576296-21.333333-21.333333 0-65.137778-25.505185-126.293333-71.68-172.373333a256.872296 256.872296 0 0 0-32.711111-27.401482c-9.671111-6.731852-12.041481-20.005926-5.214815-29.677037 6.731852-9.671111 20.100741-12.041481 29.677037-5.214815 13.558519 9.481481 26.548148 20.29037 38.305185 32.142223 54.328889 54.139259 84.195556 126.103704 84.195556 202.619259 0.094815 11.662222-9.481481 21.238519-21.238519 21.238518z" p-id="2686" fill="#1296db" data-spm-anchor-id="a313x.7781069.0.i3" class=""></path></svg>